<?xml version="1.0" encoding="UTF-8"?><svg id="Layer_1" xmlns="http://www.w3.org/2000/svg" xmlns:xlink="http://www.w3.org/1999/xlink" viewBox="0 0 226 226"><defs><style>.cls-1{clip-path:url(#clippath-20);}.cls-2{clip-path:url(#clippath-11);}.cls-3{clip-path:url(#clippath-16);}.cls-4{fill:#fff;}.cls-5{clip-path:url(#clippath-2);}.cls-6{clip-path:url(#clippath-13);}.cls-7{clip-path:url(#clippath-25);}.cls-8{clip-path:url(#clippath-15);}.cls-9{clip-path:url(#clippath-6);}.cls-10{clip-path:url(#clippath-7);}.cls-11{clip-path:url(#clippath-21);}.cls-12{clip-path:url(#clippath-1);}.cls-13{clip-path:url(#clippath-4);}.cls-14{clip-path:url(#clippath-12);}.cls-15{clip-path:url(#clippath-24);}.cls-16{clip-path:url(#clippath-22);}.cls-17{clip-path:url(#clippath-9);}.cls-18{clip-path:url(#clippath);}.cls-19{fill:none;}.cls-20{clip-path:url(#clippath-19);}.cls-21{clip-path:url(#clippath-3);}.cls-22{clip-path:url(#clippath-8);}.cls-23{clip-path:url(#clippath-18);}.cls-24{clip-path:url(#clippath-14);}.cls-25{clip-path:url(#clippath-17);}.cls-26{clip-path:url(#clippath-5);}.cls-27{fill:#4f2683;}.cls-28{clip-path:url(#clippath-10);}.cls-29{clip-path:url(#clippath-23);}</style><clipPath id="clippath"><rect class="cls-19" x="15.5" y="89.3" width="195" height="47.39"/></clipPath><clipPath id="clippath-1"><rect class="cls-19" x="15.5" y="89.3" width="195" height="47.39"/></clipPath><clipPath id="clippath-2"><rect class="cls-19" x="15.5" y="89.3" width="195" height="47.39"/></clipPath><clipPath id="clippath-3"><rect class="cls-19" x="15.5" y="89.3" width="195" height="47.39"/></clipPath><clipPath id="clippath-4"><rect class="cls-19" x="15.5" y="89.3" width="195" height="47.39"/></clipPath><clipPath id="clippath-5"><rect class="cls-19" x="15.5" y="89.3" width="195" height="47.39"/></clipPath><clipPath id="clippath-6"><rect class="cls-19" x="15.5" y="89.3" width="195" height="47.39"/></clipPath><clipPath id="clippath-7"><rect class="cls-19" x="15.5" y="89.3" width="195" height="47.39"/></clipPath><clipPath id="clippath-8"><rect class="cls-19" x="15.5" y="89.3" width="195" height="47.39"/></clipPath><clipPath id="clippath-9"><rect class="cls-19" x="15.5" y="89.3" width="195" height="47.39"/></clipPath><clipPath id="clippath-10"><rect class="cls-19" x="15.5" y="89.3" width="195" height="47.39"/></clipPath><clipPath id="clippath-11"><rect class="cls-19" x="15.5" y="89.3" width="195" height="47.39"/></clipPath><clipPath id="clippath-12"><rect class="cls-19" x="15.5" y="89.3" width="195" height="47.39"/></clipPath><clipPath id="clippath-13"><rect class="cls-19" x="15.5" y="89.3" width="195" height="47.39"/></clipPath><clipPath id="clippath-14"><rect class="cls-19" x="15.5" y="89.3" width="195" height="47.39"/></clipPath><clipPath id="clippath-15"><rect class="cls-19" x="15.5" y="89.3" width="195" height="47.39"/></clipPath><clipPath id="clippath-16"><rect class="cls-19" x="15.5" y="89.3" width="195" height="47.39"/></clipPath><clipPath id="clippath-17"><rect class="cls-19" x="15.5" y="89.3" width="195" height="47.39"/></clipPath><clipPath id="clippath-18"><rect class="cls-19" x="15.5" y="89.3" width="195" height="47.39"/></clipPath><clipPath id="clippath-19"><rect class="cls-19" x="15.5" y="89.3" width="195" height="47.39"/></clipPath><clipPath id="clippath-20"><rect class="cls-19" x="15.5" y="89.3" width="195" height="47.39"/></clipPath><clipPath id="clippath-21"><rect class="cls-19" x="15.5" y="89.3" width="195" height="47.39"/></clipPath><clipPath id="clippath-22"><rect class="cls-19" x="15.5" y="89.3" width="195" height="47.39"/></clipPath><clipPath id="clippath-23"><rect class="cls-19" x="17.61" y="89.92" width="190.54" height="45.38"/></clipPath><clipPath id="clippath-24"><rect class="cls-19" x="17.61" y="89.92" width="190.54" height="45.38"/></clipPath><clipPath id="clippath-25"><rect class="cls-19" x="15.5" y="89.3" width="195" height="47.39"/></clipPath></defs><rect class="cls-27" width="226" height="226"/><g class="cls-18"><path class="cls-4" d="m70.83,129.16c0-1.18-.81-1.8-2.32-1.8h-2.23v6.6h.74v-2.91h1.52l1.58,2.91h.84l-1.64-3.01c1.02-.22,1.52-.84,1.52-1.8m-2.36,1.21h-1.46v-2.32h1.46c1.15,0,1.61.34,1.61,1.15s-.46,1.18-1.61,1.18"/></g><g class="cls-12"><path class="cls-4" d="m30.25,131.61c0,1.15-.59,1.77-1.67,1.77s-1.67-.65-1.67-1.8v-4.25h-.74v4.34c0,1.46.93,2.36,2.42,2.36s2.42-.93,2.42-2.39v-4.34h-.74v4.31Z"/></g><g class="cls-5"><path class="cls-4" d="m83.38,119c-3.84,0-6.08-2.48-6.91-6.14h-.96l1.27,7.01c.4-.5.96-.65,1.52-.65,1.12,0,2.51.84,4.99.84,4,0,7.01-2.23,7.01-6.01,0-7.56-10.85-5.58-10.85-10.45,0-1.55,1.12-2.7,3.1-2.7,3.16,0,4.96,2.23,5.7,4.9h.93l-1.08-5.98c-.37.4-.84.62-1.43.62-1.33,0-2.14-.56-4.15-.56-3.44,0-6.14,1.89-6.14,5.27,0,6.97,10.69,5.49,10.69,10.51.03,2.26-1.61,3.35-3.69,3.35"/></g><g class="cls-21"><path class="cls-4" d="m76.9,130.25c-1.36-.43-1.77-.68-1.77-1.36,0-.59.53-.99,1.33-.99s1.36.37,1.64,1.15l.03.06.62-.31-.03-.06c-.25-.71-.84-1.52-2.29-1.52-1.18,0-2.08.74-2.08,1.74,0,1.08.68,1.49,2.14,1.95,1.43.46,1.67.81,1.67,1.39,0,.68-.59,1.12-1.55,1.12-.9,0-1.52-.46-1.8-1.33l-.03-.06-.65.25.03.06c.31,1.12,1.24,1.77,2.45,1.77,1.36,0,2.32-.74,2.32-1.83.03-1.15-.74-1.58-2.05-2.01"/></g><g class="cls-13"><path class="cls-4" d="m65.65,118.87c-5.05,0-5.8-3.84-5.8-9.76v-.31h12.99c0-5.24-2.91-8.83-8.34-8.83-5.92,0-9.11,4.56-9.11,10.07s3.01,10.07,9.08,10.07c3.75,0,6.82-1.43,8.43-5.58l-.93-.31c-1.12,2.57-2.94,4.65-6.32,4.65m-5.77-12.18c.22-2.91,1.27-5.73,4.34-5.73,3.29,0,4,2.54,4.06,5.27v1.36h-8.46c.03-.28.03-.62.06-.9"/></g><g class="cls-26"><rect class="cls-4" x="45.01" y="127.34" width=".74" height="6.6"/></g><g class="cls-9"><polygon class="cls-4" points="39.58 132.57 36.08 127.37 36.08 127.34 35.31 127.34 35.31 133.94 36.02 133.94 36.02 128.54 39.62 133.91 39.65 133.94 40.3 133.94 40.3 127.34 39.58 127.34 39.58 132.57"/></g><g class="cls-10"><path class="cls-4" d="m55.98,92.37h2.85v-.96h-7.97v.96h3.53l-.93,3.19-5.52,16.89h-.09l-6.2-16.96-1.08-3.13h3.97v-.96h-12.24v.96h3.41l2.01,5.39-5.11,14.69h-.09l-6.11-16.86-1.08-3.19h3.53v-.96h-11.25v.96h2.73l1.43,3.81,8.77,23.84h.81s5.36-15.37,7.07-20.33l7.56,20.33h.84l7.9-24.12,1.27-3.56Z"/></g><g class="cls-22"><rect class="cls-4" x="82.79" y="127.34" width=".74" height="6.6"/></g><g class="cls-17"><polygon class="cls-4" points="59.17 130.81 61.59 130.81 61.59 130.13 59.17 130.13 59.17 128.05 62.43 128.05 62.43 127.34 58.43 127.34 58.43 133.94 62.61 133.94 62.61 133.26 59.17 133.26 59.17 130.81"/></g><g class="cls-28"><polygon class="cls-4" points="52.17 132.92 50.25 127.34 49.5 127.34 51.8 133.94 51.8 133.97 52.48 133.97 54.8 127.34 54.06 127.34 52.17 132.92"/></g><g class="cls-2"><path class="cls-4" d="m151.42,127.34h-1.7v6.6h1.7c2.14,0,3.29-1.15,3.29-3.32s-1.12-3.29-3.29-3.29m.09,5.95h-1.05v-5.27h1.05c1.64,0,2.48.87,2.48,2.6s-.81,2.67-2.48,2.67"/></g><g class="cls-14"><path class="cls-4" d="m143.21,127.3h-.84l-2.45,6.54-.03.09h.74l.74-1.98h2.79l.71,1.95v.03h.77l-2.45-6.6v-.03Zm-1.58,3.97l1.15-3.13,1.15,3.13h-2.29Z"/></g><g class="cls-6"><polygon class="cls-4" points="86.79 128.05 88.9 128.05 88.9 133.94 89.64 133.94 89.64 128.05 91.72 128.05 91.72 127.34 86.79 127.34 86.79 128.05"/></g><g class="cls-24"><path class="cls-4" d="m124.45,127.3h-.84l-2.45,6.54-.03.09h.74l.74-1.98h2.79l.71,1.95v.03h.77l-2.45-6.6v-.03Zm-1.61,3.97l1.15-3.13,1.15,3.13h-2.29Z"/></g><g class="cls-8"><polygon class="cls-4" points="135.21 132.57 131.74 127.37 131.71 127.34 130.96 127.34 130.96 133.94 131.64 133.94 131.64 128.54 135.27 133.91 135.27 133.94 135.92 133.94 135.92 127.34 135.21 127.34 135.21 132.57"/></g><g class="cls-3"><path class="cls-4" d="m161.28,127.3h-.84l-2.45,6.54-.03.09h.74l.74-1.98h2.79l.71,1.95v.03h.77l-2.45-6.6v-.03Zm-1.58,3.97l1.15-3.13,1.15,3.13h-2.29Z"/></g><g class="cls-25"><path class="cls-4" d="m162.27,118.63v-13.14c0-3.91-1.92-5.61-5.77-5.61-3.22,0-5.55,1.58-6.76,4.22h-.09v-4.31c-.53.43-1.24.93-2.98.93h-4.15v.99h3.13v16.92h-3.38v.99h10.45v-.99h-3.1v-10.17c0-3.63,1.89-7.16,5.42-7.16,1.98,0,3.19,1.12,3.19,4.06v13.27h-3.1v.99h10.17v-.99h-3.04Z"/></g><g class="cls-23"><path class="cls-4" d="m141.28,102.6c0-1.55-1.15-2.73-3.29-2.73-3.19,0-4.77,2.85-5.58,5.11h-.06v-5.3c-.62.53-1.27,1.02-2.98,1.02h-4.4v.99h3.38v16.92h-3.38v.99h10.6v-.99h-3.25v-8.34c0-4.43,2.17-9.27,4.99-9.27.22,0,.34.03.46.09-.5.37-.77.99-.77,1.64,0,1.24.93,2.11,2.11,2.11,1.27,0,2.17-1.05,2.17-2.26"/></g><g class="cls-20"><path class="cls-4" d="m101.39,118.5c-1.49,0-2.11-.93-2.11-3.25v-13.55h4.8v-.99h-4.8v-6.48h-.84c-.53,4.18-2.63,6.32-6.42,6.66v.77h3.16v13.39c0,2.51.5,4.9,4.56,4.9,2.57,0,4.12-1.18,4.93-2.73l.31-.62-.84-.4c-.5,1.18-1.33,2.29-2.76,2.29"/></g><g class="cls-1"><path class="cls-4" d="m116.95,131.8c-.28,1.08-.87,1.61-1.8,1.61-1.24,0-2.01-1.08-2.01-2.79s.77-2.7,2.01-2.7c.9,0,1.39.43,1.7,1.52v.06l.71-.19v-.06c-.34-1.33-1.15-2.01-2.42-2.01-1.64,0-2.76,1.36-2.76,3.41s1.08,3.44,2.76,3.44c1.27,0,2.17-.74,2.51-2.11v-.06l-.71-.15v.03Z"/></g><g class="cls-11"><polygon class="cls-4" points="96.99 130.37 95.22 127.37 95.22 127.34 94.39 127.34 96.62 131.06 96.62 133.94 97.36 133.94 97.36 131.06 99.59 127.34 98.79 127.34 96.99 130.37"/></g><g class="cls-16"><path class="cls-4" d="m105.76,129.97c-.4,0-.71.31-.71.71s.31.71.71.71.71-.31.71-.71c.03-.43-.28-.71-.71-.71"/></g><g class="cls-29"><path class="cls-4" d="m123.49,114.5l-.93-.31c-1.12,2.6-2.94,4.68-6.32,4.68-5.05,0-5.8-3.84-5.8-9.76v-.31h12.99c0-5.24-2.91-8.83-8.34-8.83-5.92,0-9.11,4.56-9.11,10.07s3.01,10.07,9.08,10.07c3.78-.03,6.85-1.46,8.43-5.61m-12.99-7.81c.22-2.91,1.27-5.73,4.34-5.73,3.29,0,4,2.54,4.06,5.27v1.36h-8.46c.03-.28.03-.62.06-.9"/></g><g class="cls-15"><path class="cls-4" d="m208.18,108.68v-16.27c-4.22-1.49-10.85-2.45-18.32-2.45s-13.86.96-18.07,2.45v16.27c0,2.48-.03,7.07,2.17,12.24,2.76,6.42,8.03,11.22,15.62,14.26l.4.15.4-.15c7.63-3.04,12.89-7.81,15.62-14.26,2.2-5.18,2.17-9.92,2.17-12.24"/></g><g class="cls-7"><path class="cls-27" d="m189.95,117.11l11.07,9.02c-2.73,3.19-6.45,5.73-11.07,7.59-4.62-1.86-8.34-4.4-11.07-7.59l11.07-9.02Zm16.74-13.64v-10.04c-4.22-1.3-10.41-2.05-16.86-2.05s-12.4.74-16.61,2.05v10.01h0l16.74,13.64,16.74-13.61h0Zm-16.24,8.37h-1.02l-.03-.06s-.25-.5-1.36-.5h-3.32v-5.36h.25v5.11h3.07c1.02,0,1.43.4,1.52.56h.81c.12-.15.5-.56,1.52-.56h3.07v-5.08h.25v5.33h-3.32c-1.08,0-1.33.46-1.33.46l-.03.06-.06.03Zm-.62-.9v.25c-.46-.87-2.57-.71-4.37-.56v-4.96c2.23-.12,4.15-.43,4.37.56v4.46c-.56-.68-2.29-.62-4.09-.43v.15c1.77-.19,3.66-.25,4.09.53m4.62-5.24v4.96c-1.8-.19-3.91-.31-4.37.56v-.25c.4-.77,2.29-.71,4.09-.53v-.15c-1.8-.19-3.53-.25-4.09.43v-4.46c.22-.99,2.14-.68,4.37-.56m9.92-2.23h-28.8l-1.83-1.92,3.69,1.21c-.31-.93-1.15-1.24-1.67-2.01-.31-.46-.43-.93-.4-1.39.09.15.28.4.56.59.28.19.62.34,1.12.43.87.19,1.3.46,1.7.81l-1.89-3.38,3.25,2.08c-.12-.96-.81-1.46-1.12-2.36-.19-.53-.19-.99-.03-1.46.06.19.15.46.4.71.22.25.53.46.96.68.81.4,1.18.81,1.49,1.24l-.99-3.78,2.6,2.82c.09-.96-.4-1.61-.5-2.54-.06-.56.06-1.02.31-1.43,0,.19.06.5.19.77.15.28.4.59.77.9.71.62.96,1.12,1.12,1.64l-.03-3.97,1.83,3.35c.34-.84-.03-1.64.12-2.57.09-.56.34-.99.68-1.3-.03.19-.06.5,0,.81s.22.65.53,1.08c.56.81.68,1.33.68,1.89h0l.96-3.87.93,3.72c.56-.77.4-1.64.77-2.51.22-.53.56-.84.99-1.05-.09.19-.19.43-.22.77,0,.31.06.71.22,1.18.31.9.31,1.43.19,1.95l1.89-3.47-.03,3.81c.71-.56.77-1.49,1.36-2.23.34-.46.74-.65,1.21-.77-.12.15-.31.37-.4.71-.09.31-.12.68-.06,1.18.09.96-.06,1.49-.31,1.98h0l2.73-2.94-.96,3.69c.81-.4,1.12-1.18,1.83-1.74.43-.34.9-.53,1.36-.53-.15.09-.37.31-.56.59-.15.28-.28.65-.37,1.15-.15.96-.43,1.43-.81,1.86h.03l3.35-2.17-1.86,3.32c.9-.12,1.33-.84,2.2-1.24.53-.22,1.02-.28,1.46-.15-.19.06-.43.19-.68.43-.22.22-.43.56-.62,1.02-.37.9-.74,1.27-1.21,1.58l.03.03,3.78-1.27-1.95,2.08Zm-18.29,5.42h.09c.31,0,.31-.03.31-.22v-.87c0-.25-.03-.25-.25-.25h-.19v-.09h1.24v.09h-.19c-.19,0-.25.03-.25.25v.87c0,.19.03.22.31.22h.09v.09h-1.24v-.09h.06Zm2.14-.96c-.22-.12-.4-.34-.4-.59,0-.22.15-.62.68-.62.4,0,.59.25.59.5s-.09.4-.43.56c.34.19.5.37.5.62,0,.37-.28.65-.74.65-.4,0-.65-.28-.65-.56.03-.34.28-.5.46-.56m.59.62c0-.19-.09-.31-.5-.56-.19.09-.28.28-.28.46,0,.31.22.46.4.46.25-.03.37-.22.37-.37m-.22-.84c.15-.12.25-.25.25-.46,0-.25-.15-.4-.37-.4s-.34.19-.34.37.15.31.46.5m2.11-.28h1.39l.03.03-1.15,2.23-.15-.03.9-1.86h-.93l-.09.22h-.09l.09-.59Zm2.17.5c-.25-.12-.4-.34-.4-.59,0-.22.15-.62.68-.62.4,0,.59.25.59.5s-.09.4-.43.56c.34.19.5.37.5.62,0,.37-.28.65-.74.65-.4,0-.65-.28-.65-.56.03-.34.25-.5.46-.56m.59.62c0-.19-.09-.31-.5-.56-.19.09-.28.28-.28.46,0,.31.22.46.4.46.25-.03.37-.22.37-.37m-.22-.84c.15-.12.25-.25.25-.46,0-.25-.15-.4-.37-.4s-.34.19-.34.37.15.31.46.5m2.14,9.27c0-2.39,1.92-4.31,4.28-4.31s4.28,1.95,4.28,4.31-1.92,4.31-4.28,4.31c-2.39.03-4.28-1.95-4.28-4.31m6.23-2.91s.03.06.03.12c0,.09-.09.19-.19.19s-.19-.09-.19-.19.06-.19.15-.19l-.22-.34-.37.15s.06.09.06.12c0,.09-.09.19-.19.19s-.19-.09-.19-.19.06-.15.12-.19c-.12-.12-.34-.31-.59-.37.19.31.28.74.28,1.05.25-.03.9.19,1.15.37.22-.31.53-.59.87-.71-.19-.03-.5-.06-.74-.03m-1.18.84h-.09s-.03-.03-.03-.03c0,0-.03-.03-.09-.03-.12,0-.19.09-.19.12s0,.09.03.12.06.03.09.03h.06s.06-.06.09-.09c0-.03.06-.03.12-.03t0-.09s0,0,0,0m-1.18.06s-.03.09,0,.12l.03.03c-.03.06,0,.15,0,.25,0,.06.06.09.19.09v.09h0c-.06.03-.12.03-.19.03-.19,0-.28-.12-.28-.28,0-.03,0-.06.03-.09v-.03c-.06-.03-.25.12-.28.34-.03.19.09.31.25.31.09,0,.22,0,.34-.06.22-.09.46-.12.62.03-.12-.03-.4,0-.5.03-.12.03-.19.28-.06.31.12,0,.53-.03.53,0-.03.19-.31.4-.56.46-.15-.06-.62-.06-.81,0-.25-.28-.43-.84-.46-1.02,0-.09,0-.19.03-.25.09-.15.25-.12.31-.25.03-.06.03-.15.03-.22,0-.03.06-.15,0-.19-.03.03-.09.09-.15.06s-.09-.03-.15,0c-.09.03-.09.15-.19.22-.03.03-.09.03-.06-.03.03-.09.06-.19.06-.31-.03-.09-.09-.19-.22-.25-.06-.03-.09-.06-.15-.09-.06,0-.09,0-.09.03t.03.09c0,.09-.09.15-.09.25,0,.12.09.25.09.34,0,.06-.03.06-.06.03-.06-.03-.19-.09-.28-.09s-.15.06-.22.09c-.03,0-.15,0-.12.06.06,0,.12.06.15.12s.03.09.09.12c.09.06.25.03.34.06.06,0,.12.03.12.15,0,.06-.03.15-.06.22-.06.12-.09.25-.06.34.03-.03.06-.06.09-.06.06,0,.09.09.03.19s-.06.22-.03.34c.03-.03.06-.06.09-.06.06,0,.09.06.06.19s-.06.22,0,.34c.03-.06.06-.09.09-.09.06,0,.09.06.12.12.09.19.22.31.53.31-.12.22-1.05.06-1.43.03-.09,0-.12-.03-.15-.09-.06-.15.09-.28,0-.43-.03-.06-.09-.09-.15-.15-.03-.03-.12-.12-.19-.09.03.06.03.09-.06.15-.03.03-.09.06-.09.12,0,.09.06.22.09.31.03.06-.03.09-.06.06-.09-.06-.22-.22-.37-.22-.09,0-.12.06-.19.09-.03,0-.19.03-.15.09.06,0,.12.06.12.12s.03.12.06.15c.12.09.31.06.43.06.06,0,.06.06,0,.06-.09.06-.25.09-.28.19-.03.09-.03.19-.03.25,0,.03-.06.15.03.15.03-.06.09-.09.19-.09.06,0,.09.03.15,0,.09-.06.09-.12.15-.22.03-.03.06-.09.12-.09.03,0,.09,0,.12.03.06.06.06.22.28.25,0-.03-.03-.06-.03-.09s.03-.09.06-.09c.06,0,.09.03.12.09.06.09.12.12.22.15,0-.03-.03-.06-.03-.09,0-.06.03-.09.06-.09s.06,0,.12.09c.06.12.12.15.22.19-.03-.06,0-.15.09-.15s.31.06.46.15c0,.4.28.87.68,1.15,0-.09.03-.12.09-.12.15,0,.25.37.62.56-.03-.06.03-.12.06-.12s.09.03.12.03c.34.19.68.4.84.56.34-.09.9-.43,1.27-.81-.22-.06-.84-.53-1.05-.74-.4-.4-.5-.81-.5-1.12,0-.09,0-.19.03-.28.12.06.28.06.37-.03-.19-.12-.15-.4-.09-.53.09.09.28.06.37-.03-.12-.09-.22-.31-.12-.5.06.09.25.09.37,0-.15-.12-.22-.31-.19-.53.06.09.19.09.28.06-.06-.12-.06-.31-.09-.46-.03-.19-.06-.4-.12-.5-.19-.15-.77-.4-1.15-.4-.06,0-.09,0-.15.03-.09.03-.19.06-.19.09-.06.09-.19.09-.31.12.09.15-.16.22-.25.25m.59,2.91h0c-.06.25-.19.65-.28.77l.15-.12.09.12.09-.12.15.12c-.06-.15-.22-.53-.22-.77m2.85,1.21c.03-.06.06-.12.06-.12-.15-.25-.28-.5-.25-.81.03-.34.22-.43.34-.43s.22.09.22.25c.12-.09.15-.22.15-.31s-.03-.22-.19-.25c.25-.25.25-.74-.03-.93.03.34-.22.59-.46.81-.31.31-.34.65-.31,1.02-.19-.37-.28-.71-.25-1.05.03-.37.22-.77.5-.74.09,0,.19.06.22.12.12-.22.03-.46-.19-.5.22-.53-.12-1.05-.43-1.15.06.15.12.31.09.5-.03.5-.46.9-.53,1.64-.06.81.4,1.49.87,2.05.09.03.12-.03.19-.09m-1.89-.12h0c-.06.25-.19.65-.28.77l.15-.12.09.12.09-.12.15.12c-.06-.12-.19-.5-.22-.77m-.74-3.25c.03-.06.03-.12.03-.15s0-.06-.03-.09-.09-.03-.19-.03-.15,0-.22.03c0,.03-.03.06-.03.09.15,0,.31.03.43.15m-19.81,5.61c2.36,0,4.28-1.92,4.28-4.31s-1.92-4.31-4.28-4.31-4.28,1.92-4.28,4.31,1.92,4.31,4.28,4.31m2.76-6.11c0,.12-.06.34-.09.4-.03,0-.15.03-.25.03q-.06,0-.09.06c-.09.19-.19.34-.31.56-.03.25-.03.5-.03.81,0,.09,0,.25-.06.37-.09.12-.19.22-.28.25-.03,0-.03.03.03.03.03,0,.25-.12.28-.12.15-.03.31-.22.53,0,.09.09.28.22.46.34.06.06.12.03.22.12.09.06.12.22.15.31.12.22.12.34.12.37-.06.03-.34.03-.46,0-.03-.06-.03-.19-.06-.22-.03-.09-.06-.15-.12-.19-.09-.06-.15-.12-.25-.19-.22-.12-.25-.15-.4-.06-.15.06-.37.28-.62.4-.19.09-.71,0-.84-.12.06.15.34.31.56.4-.03.06-.09.46-.28.71,0-.06-.03-.09-.09-.09-.15,0-.12.31-.25.46,0-.06-.03-.09-.09-.09-.12,0-.12.28-.28.43-.03-.06-.06-.12-.12-.12s-.12.06-.15.12c-.19.19-.28.31-.43.5-.59-.03-1.46-.43-1.77-.81.56-.59,1.05-1.18,1.3-1.36.12-.34.46-1.08.59-1.43-.03-.03-.03-.06-.06-.09-.09.06-.19.06-.25.03.03-.09.03-.25,0-.37-.06.03-.15.06-.22.03.03-.12.06-.25,0-.37h0c-.09.03-.15.06-.22.03.03-.12.06-.25.03-.4v-.03c-.09.06-.46.12-.56.09-.06-.03.28-.37.53-.65-.25.12-.59.22-1.08.34-.28.06-.9.15-1.33.09-.06,0-.06-.09,0-.09.22,0,.53,0,.74-.06.06,0,.15-.06-.03-.09s-.53-.09-.68-.15c-.06-.03-.03-.09.03-.09.22,0,.43.06.62.06.09,0,.15,0,.06-.06-.06-.03-.19-.12-.34-.22-.03-.03-.03-.06,0-.06.12-.03.56.28.87.34.06.03.12.03.19.03s.06-.06.06-.06c0-.06-.31-.22-.46-.31-.06-.03,0-.09.06-.06.15.06.53.25.71.28.12.03.19-.03.19-.06-.03-.09-.53-.34-.65-.43-.03-.03,0-.06.06-.06.28.03.77.37.99.34.03,0,.06-.03.06-.06-.03-.09-.43-.31-.56-.4-.06-.03,0-.06.09-.06.15.03.4.15.56.25.06.03.12.06.19.03.09-.03.19-.12.12-.31-.03-.22-.22-.28-.37-.31s-.03-.12.09-.09c.25.06.43.15.46.37v.12c0,.12.09.06.15-.03.12-.19.15-.37.15-.5-.03-.22-.34-.31-.34-.37,0-.03.03-.03.03-.03.12-.03.46.12.5.4.03.15,0,.22-.03.34,0,.03,0,.06.06,0,.15-.15.28-.43.25-.71-.06-.28-.34-.37-.34-.4l.03-.03c.12-.03.43.15.5.46.06.28-.06.84-.9,1.27.34-.09.46-.06.5-.03.4-.12.65-.19.77-.15.12.19-.12.25-.12.37s.28-.09.25.12c-.09.15-.19.15-.31.22-.06.03-.31.22-.43.34.4.28.81.71.84.74.03.06.12.25.25.5h0c.06-.19.15-.46.19-.62.03-.12.03-.15.06-.25.03-.06.15-.15.25-.31.09-.12.25-.34.28-.43.09-.12.15-.09.34-.15.03-.06.22-.09.28-.09m-3.16.03s.06-.06.09-.06c.06-.03.15-.06.22-.06.03.03.03.12-.03.19-.06.06-.12.03-.15,0s-.06-.03-.09-.03c-.03,0-.06-.03-.03-.03m14.48,11.1s.12-.15.09-.19c-.06-.03-.19.09-.37.09s-.4-.12-.46-.37c-.06-.28.06-.5.28-.68.06-.06.25-.15.28-.25,0-.15.15-.4.15-.56s.15-.22.31-.43c.06-.12.12-.22.06-.28-.19.12-.65.53-.96.4-.12-.06-.15-.06-.28.03-.09.06-.22.09-.37.06-.25-.03-.43-.22-.43-.34-.15,0-.34.28-.4.4-.12.15-.25.28-.4.4-.12.09-.31.31-.46.19-.09-.06-.12-.34-.12-.46,0-.25.03-.4.06-.56.03-.12.06-.31.09-.43.03-.15.12-.34.19-.5.03-.06.22-.37.22-.5,0-.03-.03-.06-.06-.06-.06,0-.19.09-.31.15-.09.06-.15.09-.28.09s-.25-.06-.34-.22c-.15-.25-.15-.84-.22-.99-.15.06-.25.03-.34-.09-.12-.15-.19-.34-.25-.53-.03-.06-.09-.28-.12-.4-.09.19-.09.34-.15.5-.03.09-.06.22-.06.31-.03.12-.12.31-.25.31-.06,0-.09-.06-.12-.09-.03,0-.06.03-.09.12-.06.12-.06.25-.09.37-.06.25-.09.59-.4.62-.12.03-.28-.09-.4-.12-.25-.12-.15.22-.09.37.06.12.19.31.22.5.03.31.09.46.19.77.03.19.12.46.12.65,0,.25-.19.37-.46.12-.09-.06-.25-.31-.43-.34-.22-.06-.43-.28-.53-.4-.06,0-.15.06-.19.12-.25.22-.5.28-.9.22-.22-.03-.28-.09-.46-.19-.15-.06-.31-.15-.4-.31-.03-.03-.03-.12-.09-.09-.06,0-.06.15-.06.19,0,.15.06.31.12.43.09.15.22.22.34.34.09.09.06.25-.12.19,0,.12.12.15.22.22s.12.15.19.25c.06.12.25.22.25.37,0,.12-.03.19-.12.25-.12.06-.25.06-.4-.03-.06.22.19.37.34.46.09.06.19.09.28.12.09.06.22.15.19.22.12.06.28,0,.5.03.12.03.31.12.4.19.09.09.19.19.19.34,0,.5-.87.65-.87.65.34.12.81.37,1.21.28.06-.03.19-.09.28-.03.06.03.12.15.06.25.06.06.19.09.31.09.09,0,.22,0,.28-.06.09-.06.12-.12.22-.19s.19-.03.28-.06c.15-.06.22-.22.4-.25l-.06,2.94h.56c0-.31-.03-.59-.03-.9-.03-.5-.03-1.02-.06-1.52v-.5c.15.06.22.25.37.34s.56.31.71.15c-.03-.06-.12-.25,0-.25.03,0,.12.06.15.09.09.06.19.06.28.06.12,0,.28-.03.43,0,.09.03.19.03.31,0,.09-.03.19-.06.25-.09.15-.06.34-.03.43-.15-.12,0-.37-.09-.4-.12-.15-.09-.28-.22-.34-.4-.06-.15-.12-.37.09-.4.12-.03.09,0,.19-.09.06-.09.22-.22.34-.25.12-.06.56-.03.59-.19-.03-.03-.06-.06-.03-.09,0-.03.03-.06.09-.09.09-.03.19-.06.25-.09.22.03.4-.03.5-.12"/></g></svg>